<svg width="342" height="268" viewBox="0 0 342 268" fill="none" xmlns="http://www.w3.org/2000/svg">
<path d="M193.225 153.2C193.225 160 193.359 166.667 193.625 173.2C193.892 179.6 194.625 184.8 195.825 188.8C198.225 190.267 200.892 191.2 203.825 191.6C206.892 191.867 209.759 192.067 212.425 192.2C215.092 192.333 217.292 192.6 219.025 193C220.892 193.4 221.825 194.267 221.825 195.6C221.825 196.267 221.492 196.8 220.825 197.2C220.159 197.733 219.092 198 217.625 198C213.759 198.133 208.492 197.933 201.825 197.4C195.159 197 187.559 196.8 179.025 196.8C168.092 196.8 159.825 197.133 154.225 197.8C148.759 198.6 145.492 199 144.425 199C143.492 199 142.692 198.733 142.025 198.2C141.359 197.8 141.025 197.2 141.025 196.4C141.025 194.667 141.825 193.733 143.425 193.6C145.025 193.467 148.025 193.067 152.425 192.4C155.359 192.133 157.759 191.8 159.625 191.4C161.492 190.867 163.359 190.267 165.225 189.6C166.025 186.667 166.692 183.667 167.225 180.6C167.759 177.533 168.225 173.733 168.625 169.2C169.025 164.533 169.292 158.8 169.425 152C169.692 145.067 169.825 136.2 169.825 125.4C169.825 115.533 169.759 107.2 169.625 100.4C169.492 93.4667 169.225 87.7333 168.825 83.2C168.559 78.5333 168.225 74.8667 167.825 72.2C167.559 69.5333 167.225 67.4667 166.825 66C165.092 64.8 162.825 64.0667 160.025 63.8C157.225 63.4 154.492 63.1333 151.825 63C149.159 62.7333 146.825 62.4 144.825 62C142.959 61.6 142.025 60.6667 142.025 59.2C142.025 57.4667 143.092 56.6 145.225 56.6C147.625 56.6 151.692 56.9333 157.425 57.6C163.292 58.1333 170.425 58.4 178.825 58.4C180.159 58.4 181.225 58.2 182.025 57.8C183.359 57.1333 185.492 56.2 188.425 55C191.359 53.8 194.759 52.6 198.625 51.4C202.492 50.2 206.559 49.1333 210.825 48.2C215.225 47.2667 219.492 46.8 223.625 46.8C230.292 46.8 236.625 47.6 242.625 49.2C248.625 50.6667 253.825 52.9333 258.225 56C262.759 59.0667 266.359 62.8667 269.025 67.4C271.692 71.9333 273.025 77.2 273.025 83.2C273.025 89.0667 271.625 94.5333 268.825 99.6C266.159 104.533 262.759 109.067 258.625 113.2C254.492 117.333 249.959 120.933 245.025 124C240.092 126.933 235.492 129.267 231.225 131C236.692 131 241.825 131.6 246.625 132.8C251.559 133.867 255.959 135.467 259.825 137.6C263.825 139.6 267.092 142.067 269.625 145C272.292 147.933 274.025 151.267 274.825 155C274.825 156.867 274.625 158.133 274.225 158.8C273.959 159.333 273.359 160.267 272.425 161.6C275.092 165.867 278.025 170.933 281.225 176.8C284.559 182.533 288.225 188.067 292.225 193.4C296.359 198.6 300.892 203 305.825 206.6C310.892 210.333 316.492 212.2 322.625 212.2C323.825 212.2 325.159 212.133 326.625 212C328.225 211.867 329.692 211.6 331.025 211.2C332.492 210.8 333.825 210.2 335.025 209.4C336.225 208.6 337.092 207.533 337.625 206.2C338.159 205.8 338.692 205.6 339.225 205.6C339.892 205.6 340.292 205.933 340.425 206.6C340.692 207.267 340.892 207.933 341.025 208.6C338.359 214.6 331.759 217.6 321.225 217.6C315.892 217.6 310.759 216.733 305.825 215C301.025 213.267 296.359 210.933 291.825 208C287.425 205.2 283.159 201.933 279.025 198.2C275.025 194.467 271.225 190.6 267.625 186.6C264.959 183.667 261.825 180 258.225 175.6C254.759 171.2 251.025 166.733 247.025 162.2C243.025 157.533 238.825 153.2 234.425 149.2C230.159 145.067 225.892 141.867 221.625 139.6C219.625 138.667 217.359 138 214.825 137.6C212.292 137.067 209.825 136.733 207.425 136.6C205.159 136.333 203.025 136.2 201.025 136.2C199.025 136.2 197.492 136.2 196.425 136.2C195.625 136.2 194.959 136.267 194.425 136.4C193.892 136.4 193.492 136.4 193.225 136.4V153.2ZM196.625 69C195.959 71.5333 195.425 75.0667 195.025 79.6C194.625 84.1333 194.292 89.1333 194.025 94.6C193.759 99.9333 193.559 105.533 193.425 111.4C193.292 117.133 193.225 122.6 193.225 127.8C194.559 128.867 197.092 129.467 200.825 129.6C204.692 129.733 208.825 129.8 213.225 129.8C217.092 129.8 220.292 129.467 222.825 128.8C225.492 128.133 227.959 126.933 230.225 125.2C231.559 124.267 233.025 122.733 234.625 120.6C236.359 118.467 237.959 115.933 239.425 113C241.025 110.067 242.359 106.8 243.425 103.2C244.492 99.4667 245.025 95.5333 245.025 91.4C245.025 85.4 244.359 80.0667 243.025 75.4C241.692 70.6 239.892 66.5333 237.625 63.2C235.359 59.7333 232.692 57.1333 229.625 55.4C226.559 53.5333 223.292 52.6 219.825 52.6C217.959 52.6 215.825 53 213.425 53.8C211.159 54.4667 208.892 55.4 206.625 56.6C204.359 57.8 202.359 59.2 200.625 60.8C198.892 62.2667 197.759 63.8667 197.225 65.6L196.625 69Z" fill="#8B2252"/>
<path d="M147.67 153.239C147.67 160.033 147.537 166.693 147.27 173.221C147.004 179.615 146.271 184.811 145.072 188.807C142.674 190.273 140.01 191.205 137.079 191.605C134.015 191.871 131.151 192.071 128.487 192.204C125.823 192.337 123.624 192.604 121.893 193.004C120.028 193.403 119.095 194.269 119.095 195.601C119.095 196.267 119.428 196.8 120.094 197.2C120.76 197.733 121.826 197.999 123.291 197.999C127.155 198.132 132.417 197.933 139.078 197.4C145.738 197 153.332 196.8 161.857 196.8C172.781 196.8 181.041 197.133 186.636 197.799C192.098 198.599 195.361 198.998 196.427 198.998C197.36 198.998 198.159 198.732 198.825 198.199C199.491 197.799 199.824 197.2 199.824 196.401C199.824 194.669 199.025 193.736 197.426 193.603C195.828 193.47 192.83 193.07 188.434 192.404C185.503 192.138 183.105 191.805 181.24 191.405C179.375 190.872 177.51 190.273 175.645 189.607C174.846 186.676 174.18 183.678 173.647 180.614C173.114 177.55 172.648 173.754 172.248 169.224C171.849 164.562 171.582 158.834 171.449 152.04C171.183 145.112 171.049 136.253 171.049 125.463C171.049 115.605 171.116 107.279 171.249 100.485C171.382 93.5577 171.649 87.8295 172.049 83.3001C172.315 78.6375 172.648 74.9741 173.048 72.3098C173.314 69.6455 173.647 67.5806 174.047 66.1152C175.779 64.9163 178.043 64.1836 180.841 63.9172C183.638 63.5175 186.369 63.2511 189.034 63.1179C191.698 62.8514 194.029 62.5184 196.027 62.1188C197.892 61.7191 198.825 60.7866 198.825 59.3212C198.825 57.5894 197.759 56.7235 195.628 56.7235C193.23 56.7235 189.167 57.0566 183.438 57.7226C177.577 58.2555 170.45 58.5219 162.057 58.5219C160.725 58.5219 159.659 58.3221 158.86 57.9225C157.528 57.2564 155.397 56.3239 152.466 55.1249C149.535 53.926 146.138 52.727 142.275 51.5281C138.411 50.3291 134.348 49.2634 130.085 48.3309C125.689 47.3984 121.426 46.9321 117.297 46.9321C110.636 46.9321 104.308 47.7314 98.3134 49.33C92.3187 50.7954 87.1233 53.0601 82.7272 56.124C78.1978 59.188 74.601 62.9847 71.9367 67.514C69.2723 72.0434 67.9402 77.3054 67.9402 83.3001C67.9402 89.1616 69.3389 94.6235 72.1365 99.6857C74.8008 104.615 78.1978 109.144 82.3275 113.274C86.4572 117.403 90.9866 121 95.9156 124.064C100.845 126.995 105.44 129.326 109.703 131.058C104.242 131.058 99.1127 131.658 94.317 132.856C89.388 133.922 84.9918 135.521 81.1286 137.652C77.1321 139.65 73.8683 142.115 71.3372 145.046C68.6729 147.976 66.9411 151.307 66.1418 155.037C66.1418 156.902 66.3416 158.168 66.7412 158.834C67.0077 159.366 67.6071 160.299 68.5397 161.631C65.8753 165.894 62.9446 170.956 59.7474 176.818C56.417 182.546 52.7536 188.075 48.7571 193.403C44.6274 198.599 40.098 202.995 35.169 206.592C30.1068 210.322 24.5118 212.187 18.3838 212.187C17.1849 212.187 15.8527 212.12 14.3873 211.987C12.7887 211.854 11.3234 211.587 9.99121 211.188C8.52583 210.788 7.19366 210.188 5.99472 209.389C4.79578 208.59 3.92987 207.524 3.39701 206.192C2.86415 205.792 2.33129 205.592 1.79842 205.592C1.13234 205.592 0.732691 205.925 0.599469 206.592C0.33304 207.258 0.133219 207.924 4.32361e-06 208.59C2.66432 214.585 9.25851 217.582 19.7826 217.582C25.1112 217.582 30.24 216.716 35.169 214.984C39.9648 213.252 44.6274 210.921 49.1567 207.99C53.5528 205.193 57.8158 201.929 61.9455 198.199C65.9419 194.469 69.7386 190.606 73.3354 186.609C75.9998 183.678 79.1303 180.015 82.7272 175.619C86.1908 171.223 89.9208 166.76 93.9173 162.231C97.9138 157.568 102.11 153.239 106.506 149.242C110.769 145.112 115.032 141.915 119.295 139.65C121.293 138.718 123.558 138.052 126.089 137.652C128.62 137.119 131.085 136.786 133.482 136.653C135.747 136.387 137.879 136.253 139.877 136.253C141.875 136.253 143.407 136.253 144.473 136.253C145.272 136.253 145.938 136.32 146.471 136.453C147.004 136.453 147.404 136.453 147.67 136.453V153.239ZM144.273 69.1126C144.939 71.6437 145.472 75.1739 145.872 79.7033C146.271 84.2326 146.604 89.2282 146.871 94.6901C147.137 100.019 147.337 105.614 147.47 111.475C147.603 117.204 147.67 122.665 147.67 127.861C146.338 128.927 143.807 129.526 140.077 129.659C136.213 129.793 132.084 129.859 127.688 129.859C123.824 129.859 120.627 129.526 118.096 128.86C115.432 128.194 112.967 126.995 110.703 125.263C109.37 124.331 107.905 122.799 106.306 120.667C104.575 118.536 102.976 116.005 101.511 113.074C99.912 110.143 98.5799 106.879 97.5141 103.283C96.4484 99.5525 95.9156 95.6226 95.9156 91.4929C95.9156 85.4982 96.5816 80.1695 97.9138 75.507C99.246 70.7112 101.044 66.6481 103.309 63.3177C105.574 59.8541 108.238 57.2564 111.302 55.5246C114.366 53.6595 117.63 52.727 121.093 52.727C122.958 52.727 125.09 53.1267 127.488 53.926C129.752 54.5921 132.017 55.5246 134.282 56.7235C136.546 57.9225 138.545 59.3212 140.276 60.9198C142.008 62.3852 143.141 63.9838 143.673 65.7156L144.273 69.1126Z" fill="#8B2252"/>
</svg>
