<svg width="29" height="12" viewBox="0 0 29 12" fill="none" xmlns="http://www.w3.org/2000/svg">
<path d="M5.57812 0C5.98438 0 6.33984 0.0527344 6.64453 0.158203C6.95312 0.263672 7.21094 0.410156 7.41797 0.597656C7.625 0.78125 7.7793 0.998047 7.88086 1.24805C7.98633 1.49414 8.03906 1.75781 8.03906 2.03906C8.03906 2.34766 7.98633 2.64453 7.88086 2.92969C7.7793 3.21094 7.63672 3.47852 7.45312 3.73242C7.27344 3.98633 7.06055 4.22461 6.81445 4.44727C6.56836 4.66992 6.30469 4.87305 6.02344 5.05664C5.74219 5.24023 5.44922 5.4043 5.14453 5.54883C4.84375 5.69336 4.54492 5.81445 4.24805 5.91211C4.45898 6.09961 4.65039 6.31836 4.82227 6.56836C4.99414 6.81445 5.1582 7.07812 5.31445 7.35938C5.4707 7.63672 5.625 7.92188 5.77734 8.21484C5.92969 8.50781 6.08984 8.79297 6.25781 9.07031C6.42578 9.34375 6.60742 9.60352 6.80273 9.84961C7.00195 10.0957 7.22656 10.3105 7.47656 10.4941C7.73047 10.6816 8.01367 10.8281 8.32617 10.9336C8.63867 11.043 8.99609 11.0977 9.39844 11.0977L9.42188 11.3379C9.37109 11.3496 9.3125 11.3594 9.24609 11.3672C9.19141 11.375 9.12305 11.3809 9.04102 11.3848C8.95898 11.3926 8.86523 11.3965 8.75977 11.3965C8.25195 11.3965 7.80859 11.3379 7.42969 11.2207C7.05078 11.1074 6.7207 10.9512 6.43945 10.752C6.16211 10.5566 5.92578 10.3281 5.73047 10.0664C5.53516 9.80859 5.36328 9.53516 5.21484 9.24609C5.07031 8.95312 4.94336 8.65625 4.83398 8.35547C4.72461 8.05078 4.61523 7.75781 4.50586 7.47656C4.40039 7.19141 4.28711 6.92773 4.16602 6.68555C4.04883 6.43945 3.9082 6.23047 3.74414 6.05859C3.66602 6.07812 3.58789 6.09375 3.50977 6.10547C3.43555 6.11719 3.36133 6.12891 3.28711 6.14062C3.2832 6.42188 3.27734 6.66602 3.26953 6.87305C3.26562 7.07617 3.25977 7.25586 3.25195 7.41211C3.24414 7.56445 3.23438 7.69922 3.22266 7.81641C3.21094 7.93359 3.19727 8.04688 3.18164 8.15625C3.13867 8.46094 3.07617 8.7207 2.99414 8.93555C2.91211 9.14648 2.8125 9.32031 2.69531 9.45703C2.57812 9.58984 2.44336 9.6875 2.29102 9.75C2.14258 9.80859 1.97852 9.83789 1.79883 9.83789C1.54492 9.83789 1.30664 9.76367 1.08398 9.61523C0.865234 9.4668 0.675781 9.24609 0.515625 8.95312C0.355469 8.66016 0.228516 8.29688 0.134766 7.86328C0.0449219 7.42969 0 6.92773 0 6.35742C0 5.75977 0.0644531 5.1875 0.193359 4.64062C0.322266 4.08984 0.503906 3.58008 0.738281 3.11133C0.976562 2.63867 1.26367 2.21094 1.59961 1.82812C1.93555 1.44531 2.30859 1.11914 2.71875 0.849609C3.13281 0.576172 3.58008 0.367188 4.06055 0.222656C4.54492 0.0742188 5.05078 0 5.57812 0ZM1.98047 5.69531C1.98047 5.59375 2.01953 5.50781 2.09766 5.4375C2.17969 5.36328 2.28906 5.31445 2.42578 5.29102C2.41797 4.9082 2.4082 4.55859 2.39648 4.24219C2.38477 3.92578 2.375 3.65234 2.36719 3.42188C2.35547 3.15234 2.3457 2.91016 2.33789 2.69531C2.36523 2.67188 2.39648 2.65234 2.43164 2.63672C2.46289 2.62109 2.5 2.60742 2.54297 2.5957C2.58594 2.58398 2.63867 2.57812 2.70117 2.57812C2.88086 2.57812 3.02539 2.61133 3.13477 2.67773C3.24414 2.74023 3.29883 2.84766 3.29883 3C3.29883 3.46094 3.29883 3.88867 3.29883 4.2832C3.29883 4.67383 3.29492 5.04102 3.28711 5.38477C3.41211 5.41992 3.53125 5.46484 3.64453 5.51953C3.76172 5.57031 3.87109 5.62891 3.97266 5.69531C4.33203 5.59766 4.69336 5.45703 5.05664 5.27344C5.41992 5.08984 5.74609 4.85742 6.03516 4.57617C6.32812 4.29102 6.56445 3.95508 6.74414 3.56836C6.92773 3.17773 7.01953 2.72852 7.01953 2.2207C7.01953 1.88867 6.97266 1.60547 6.87891 1.37109C6.78906 1.13672 6.66602 0.945312 6.50977 0.796875C6.35352 0.644531 6.16797 0.533203 5.95312 0.462891C5.74219 0.392578 5.51758 0.357422 5.2793 0.357422C4.88086 0.357422 4.48828 0.416016 4.10156 0.533203C3.71875 0.646484 3.35547 0.820312 3.01172 1.05469C2.67188 1.28906 2.35742 1.58594 2.06836 1.94531C1.7832 2.30469 1.53516 2.72852 1.32422 3.2168C1.11719 3.70508 0.955078 4.25977 0.837891 4.88086C0.720703 5.50195 0.662109 6.19336 0.662109 6.95508C0.662109 7.28711 0.677734 7.60938 0.708984 7.92188C0.744141 8.23047 0.800781 8.50586 0.878906 8.74805C0.957031 8.98633 1.06055 9.17773 1.18945 9.32227C1.32227 9.4668 1.48633 9.53906 1.68164 9.53906C1.78711 9.53906 1.88672 9.51758 1.98047 9.47461C2.07422 9.43164 2.15625 9.34375 2.22656 9.21094C2.29688 9.07422 2.35352 8.88086 2.39648 8.63086C2.43945 8.37695 2.46094 8.03906 2.46094 7.61719C2.46094 7.46484 2.46094 7.33008 2.46094 7.21289C2.46094 7.0918 2.46094 6.97656 2.46094 6.86719C2.46094 6.75391 2.45898 6.64062 2.45508 6.52734C2.45508 6.41406 2.45312 6.28906 2.44922 6.15234C2.30078 6.11719 2.18555 6.06055 2.10352 5.98242C2.02148 5.9043 1.98047 5.80859 1.98047 5.69531ZM2.2793 5.69531C2.2793 5.73438 2.28516 5.76758 2.29688 5.79492C2.3125 5.82227 2.35938 5.8457 2.4375 5.86523V5.58984C2.33203 5.61328 2.2793 5.64844 2.2793 5.69531ZM3.28711 5.8418C3.31836 5.8418 3.34766 5.83984 3.375 5.83594C3.40625 5.83203 3.4375 5.82617 3.46875 5.81836C3.4375 5.79883 3.40625 5.78125 3.375 5.76562C3.34766 5.75 3.31836 5.73633 3.28711 5.72461V5.8418ZM9.78258 8.56641C9.76305 8.59766 9.73375 8.65234 9.69469 8.73047C9.65953 8.80469 9.61266 8.88867 9.55406 8.98242C9.49937 9.07617 9.43297 9.17383 9.35484 9.27539C9.28062 9.37695 9.19469 9.46875 9.09703 9.55078C8.99937 9.63281 8.89 9.70117 8.76891 9.75586C8.65172 9.81055 8.52086 9.83789 8.37633 9.83789C8.26305 9.83789 8.14586 9.81445 8.02477 9.76758C7.90367 9.7207 7.79039 9.63477 7.68492 9.50977C7.58336 9.38477 7.49937 9.21484 7.43297 9C7.36656 8.78125 7.33336 8.5 7.33336 8.15625C7.33336 7.82812 7.34508 7.5 7.36852 7.17188C7.39195 6.83984 7.4193 6.53711 7.45055 6.26367C7.4857 5.99023 7.51891 5.76172 7.55016 5.57812C7.58141 5.39453 7.60484 5.2832 7.62047 5.24414C7.63609 5.20898 7.66734 5.17773 7.71422 5.15039C7.76109 5.12305 7.81383 5.10156 7.87242 5.08594C7.93492 5.07031 7.99742 5.05859 8.05992 5.05078C8.12633 5.04297 8.18297 5.03906 8.22984 5.03906C8.29234 5.03906 8.34117 5.05469 8.37633 5.08594C8.41539 5.11719 8.43492 5.16992 8.43492 5.24414C8.43492 5.2793 8.42711 5.34961 8.41148 5.45508C8.39977 5.55664 8.38414 5.68164 8.36461 5.83008C8.34508 5.97852 8.32359 6.14258 8.30016 6.32227C8.28062 6.50195 8.26109 6.68555 8.24156 6.87305C8.22203 7.05664 8.20445 7.24023 8.18883 7.42383C8.17711 7.60352 8.17125 7.76758 8.17125 7.91602C8.17125 8.3418 8.21617 8.6582 8.30602 8.86523C8.39977 9.07227 8.55211 9.17578 8.76305 9.17578C8.94273 9.17578 9.12437 9.04492 9.30797 8.7832C9.49547 8.52148 9.65758 8.14062 9.7943 7.64062C9.81383 7.42969 9.83141 7.20508 9.84703 6.9668C9.86656 6.72461 9.88414 6.49609 9.89977 6.28125C9.91539 6.0625 9.92906 5.86719 9.94078 5.69531C9.95641 5.52344 9.97008 5.40039 9.9818 5.32617C9.99352 5.27148 10.0248 5.22656 10.0755 5.19141C10.1263 5.15234 10.183 5.12305 10.2455 5.10352C10.3119 5.08008 10.3744 5.06445 10.433 5.05664C10.4955 5.04492 10.5423 5.03906 10.5736 5.03906C10.64 5.03906 10.6849 5.05469 10.7084 5.08594C10.7357 5.11328 10.7494 5.1582 10.7494 5.2207C10.7494 5.27539 10.7435 5.38086 10.7318 5.53711C10.724 5.68945 10.7123 5.86914 10.6966 6.07617C10.6849 6.2793 10.6712 6.49805 10.6556 6.73242C10.64 6.9668 10.6244 7.19336 10.6087 7.41211C10.597 7.62695 10.5853 7.82227 10.5736 7.99805C10.5658 8.17383 10.5619 8.30664 10.5619 8.39648C10.5619 8.66211 10.5755 8.87109 10.6029 9.02344C10.6341 9.17578 10.7005 9.25195 10.8021 9.25195C10.8763 9.25195 10.9564 9.20508 11.0423 9.11133C11.1322 9.01367 11.2279 8.87891 11.3295 8.70703C11.4349 8.53516 11.5482 8.33203 11.6693 8.09766C11.7904 7.85938 11.9212 7.59961 12.0619 7.31836L12.1205 7.19531L12.3607 7.37695L12.3021 7.5C12.1146 7.87109 11.9486 8.20312 11.8041 8.49609C11.6634 8.78516 11.5287 9.0293 11.3998 9.22852C11.2709 9.42773 11.14 9.58008 11.0072 9.68555C10.8744 9.78711 10.7259 9.83789 10.5619 9.83789C10.4095 9.83789 10.2826 9.80859 10.181 9.75C10.0834 9.69141 10.0052 9.60742 9.94664 9.49805C9.88805 9.38867 9.84508 9.25586 9.81773 9.09961C9.7943 8.94336 9.78258 8.76562 9.78258 8.56641ZM12.5339 6.7207C12.5378 7.16992 12.5671 7.57031 12.6218 7.92188C12.6765 8.26953 12.7527 8.56445 12.8503 8.80664C12.948 9.04492 13.0671 9.22656 13.2077 9.35156C13.3484 9.47656 13.5085 9.53906 13.6882 9.53906C13.9343 9.53906 14.1374 9.44141 14.2976 9.24609C14.4616 9.04688 14.5827 8.77539 14.6609 8.43164C14.4577 8.38867 14.2644 8.30859 14.0808 8.19141C13.8972 8.07422 13.7351 7.92969 13.5945 7.75781C13.4538 7.58203 13.3405 7.38086 13.2546 7.1543C13.1726 6.92773 13.1316 6.68164 13.1316 6.41602C13.1316 6.19727 13.1589 6.00586 13.2136 5.8418C13.2722 5.67383 13.3484 5.53516 13.4421 5.42578C13.5359 5.3125 13.6433 5.22852 13.7644 5.17383C13.8894 5.11523 14.0202 5.08594 14.157 5.08594C14.3171 5.08594 14.4812 5.13281 14.6491 5.22656C14.8171 5.31641 14.9695 5.45312 15.1062 5.63672C15.2429 5.81641 15.3542 6.04297 15.4402 6.31641C15.5261 6.58984 15.5691 6.9082 15.5691 7.27148C15.5691 7.4082 15.5612 7.54297 15.5456 7.67578C15.53 7.80859 15.5066 7.9375 15.4753 8.0625C15.6628 8.00781 15.8327 7.91992 15.9851 7.79883C16.1413 7.67773 16.2702 7.51758 16.3718 7.31836L16.4362 7.19531L16.6765 7.37695L16.612 7.5C16.4792 7.76562 16.3015 7.97852 16.0788 8.13867C15.8601 8.29492 15.6218 8.39648 15.364 8.44336C15.2937 8.64258 15.2019 8.82812 15.0886 9C14.9792 9.16797 14.8523 9.31445 14.7077 9.43945C14.5671 9.56445 14.407 9.66211 14.2273 9.73242C14.0515 9.80273 13.8601 9.83789 13.653 9.83789C13.3601 9.83789 13.0905 9.77539 12.8445 9.65039C12.6023 9.52539 12.3913 9.32227 12.2116 9.04102C12.0359 8.75977 11.8972 8.39062 11.7956 7.93359C11.698 7.47266 11.6491 6.9082 11.6491 6.24023C11.6491 5.31055 11.6921 4.51953 11.778 3.86719C11.864 3.21094 11.9773 2.67773 12.1179 2.26758C12.2585 1.85352 12.4206 1.55273 12.6042 1.36523C12.7878 1.17383 12.9773 1.07812 13.1726 1.07812C13.2937 1.07812 13.3933 1.12695 13.4714 1.22461C13.5495 1.31836 13.5886 1.49023 13.5886 1.74023C13.5886 1.93555 13.573 2.1582 13.5417 2.4082C13.5105 2.6582 13.4695 2.92578 13.4187 3.21094C13.3679 3.49609 13.3073 3.79297 13.237 4.10156C13.1667 4.40625 13.0925 4.71094 13.0144 5.01562C12.9362 5.31641 12.8562 5.61328 12.7741 5.90625C12.6921 6.19531 12.612 6.4668 12.5339 6.7207ZM13.5183 6.36914C13.5183 6.59961 13.5495 6.8125 13.612 7.00781C13.6784 7.19922 13.7663 7.36914 13.8757 7.51758C13.9851 7.66211 14.112 7.7832 14.2566 7.88086C14.4011 7.97852 14.5554 8.04688 14.7195 8.08594C14.739 7.97656 14.7507 7.86328 14.7546 7.74609C14.7624 7.625 14.7663 7.50195 14.7663 7.37695C14.7663 7.09961 14.7448 6.84961 14.7019 6.62695C14.6589 6.40039 14.6023 6.20898 14.532 6.05273C14.4616 5.89258 14.3796 5.76953 14.2859 5.68359C14.1921 5.59766 14.0964 5.55469 13.9987 5.55469C13.8659 5.55469 13.7527 5.62695 13.6589 5.77148C13.5652 5.91211 13.5183 6.11133 13.5183 6.36914ZM13.2077 1.88086C13.2077 1.79883 13.198 1.73438 13.1784 1.6875C13.1589 1.64062 13.1277 1.61719 13.0847 1.61719C13.0417 1.61719 12.9987 1.67773 12.9558 1.79883C12.9128 1.91992 12.8698 2.08398 12.8269 2.29102C12.7878 2.49805 12.7507 2.73828 12.7155 3.01172C12.6843 3.28516 12.655 3.57617 12.6277 3.88477C12.6003 4.18945 12.5788 4.50195 12.5632 4.82227C12.5476 5.14258 12.5378 5.45117 12.5339 5.74805C12.6277 5.4043 12.7155 5.05273 12.7976 4.69336C12.8796 4.33008 12.9499 3.97852 13.0085 3.63867C13.071 3.29883 13.1198 2.97852 13.155 2.67773C13.1902 2.37305 13.2077 2.10742 13.2077 1.88086ZM16.3809 7.25977L16.3223 7.37695L16.2638 7.5L16.0235 7.31836L16.0821 7.19531C16.1798 6.99609 16.2598 6.79688 16.3223 6.59766C16.3888 6.39453 16.4415 6.20508 16.4805 6.0293C16.5235 5.85352 16.5587 5.69922 16.586 5.56641C16.6134 5.43359 16.6407 5.33789 16.668 5.2793C16.6915 5.23242 16.7247 5.19531 16.7677 5.16797C16.8145 5.13672 16.8614 5.11133 16.9083 5.0918C16.9591 5.07227 17.0059 5.05859 17.0489 5.05078C17.0958 5.04297 17.129 5.03906 17.1485 5.03906C17.2345 5.03906 17.2911 5.05664 17.3184 5.0918C17.3497 5.12695 17.3653 5.18945 17.3653 5.2793C17.3653 5.32227 17.3555 5.42969 17.336 5.60156C17.3204 5.76953 17.3009 5.98242 17.2774 6.24023C17.2579 6.49414 17.2384 6.78125 17.2188 7.10156C17.2032 7.41797 17.1954 7.74609 17.1954 8.08594C17.1954 8.33203 17.2071 8.52734 17.2305 8.67188C17.254 8.8125 17.2833 8.91797 17.3184 8.98828C17.3575 9.05859 17.3985 9.10352 17.4415 9.12305C17.4884 9.14258 17.5352 9.15234 17.5821 9.15234C17.6446 9.15234 17.7149 9.125 17.793 9.07031C17.8712 9.01562 17.963 8.91992 18.0684 8.7832C18.1739 8.64258 18.295 8.45508 18.4317 8.2207C18.5684 7.98242 18.7286 7.68164 18.9122 7.31836L18.9766 7.19531L19.2169 7.37695L19.1524 7.5C19.004 7.78906 18.8555 8.07422 18.7071 8.35547C18.5626 8.63672 18.4141 8.88672 18.2618 9.10547C18.1134 9.32422 17.963 9.50195 17.8106 9.63867C17.6583 9.77148 17.5059 9.83789 17.3536 9.83789C17.1934 9.83789 17.0548 9.80664 16.9376 9.74414C16.8243 9.67773 16.7286 9.57031 16.6505 9.42188C16.5763 9.27344 16.5196 9.07812 16.4805 8.83594C16.4454 8.58984 16.4278 8.28711 16.4278 7.92773C16.4278 7.82617 16.4278 7.7207 16.4278 7.61133C16.4278 7.49805 16.4317 7.38086 16.4395 7.25977H16.3809ZM17.5821 3.83789C17.5821 3.97461 17.5352 4.08984 17.4415 4.18359C17.3516 4.27344 17.2384 4.31836 17.1016 4.31836C16.9688 4.31836 16.8555 4.27344 16.7618 4.18359C16.668 4.08984 16.6212 3.97461 16.6212 3.83789C16.6212 3.70508 16.668 3.5918 16.7618 3.49805C16.8555 3.4043 16.9688 3.35742 17.1016 3.35742C17.2384 3.35742 17.3516 3.4043 17.4415 3.49805C17.5352 3.5918 17.5821 3.70508 17.5821 3.83789ZM20.8725 5.44336C20.7631 5.44336 20.6401 5.49219 20.5034 5.58984C20.3705 5.6875 20.2358 5.81445 20.0991 5.9707C19.9623 6.12305 19.8295 6.29492 19.7006 6.48633C19.5756 6.67773 19.4662 6.86719 19.3725 7.05469C19.3608 7.39844 19.3491 7.77344 19.3373 8.17969C19.3295 8.58594 19.3256 9.01953 19.3256 9.48047C19.3256 9.53906 19.2983 9.5918 19.2436 9.63867C19.1928 9.68164 19.1323 9.71875 19.062 9.75C18.9916 9.77734 18.9194 9.79883 18.8452 9.81445C18.7709 9.83008 18.7104 9.83789 18.6635 9.83789C18.6049 9.83789 18.5502 9.82031 18.4995 9.78516C18.4487 9.75 18.4233 9.67188 18.4233 9.55078C18.4233 9.49219 18.4291 9.41992 18.4409 9.33398C18.4526 9.24414 18.4682 9.14844 18.4877 9.04688C18.5034 8.94531 18.5229 8.8418 18.5463 8.73633C18.5659 8.62695 18.5854 8.52539 18.6049 8.43164V5.56641C18.6049 5.48828 18.6069 5.42773 18.6108 5.38477C18.6108 5.33789 18.6166 5.30273 18.6284 5.2793C18.6518 5.22461 18.6928 5.18164 18.7514 5.15039C18.81 5.11914 18.8725 5.0957 18.9389 5.08008C19.0053 5.06055 19.0698 5.04883 19.1323 5.04492C19.1948 5.04102 19.2436 5.03906 19.2787 5.03906C19.3452 5.03906 19.3901 5.05664 19.4135 5.0918C19.4409 5.12695 19.4545 5.18945 19.4545 5.2793C19.4545 5.26758 19.4448 5.36328 19.4252 5.56641C19.4096 5.76953 19.3959 6.06055 19.3842 6.43945C19.5014 6.25586 19.6284 6.08008 19.7651 5.91211C19.9018 5.74414 20.0444 5.5957 20.1928 5.4668C20.3412 5.33789 20.4936 5.23438 20.6498 5.15625C20.81 5.07812 20.9721 5.03906 21.1362 5.03906C21.4291 5.03906 21.644 5.13281 21.7807 5.32031C21.9174 5.50391 21.9858 5.75391 21.9858 6.07031C21.9858 6.26953 21.9721 6.49219 21.9448 6.73828C21.9213 6.98047 21.892 7.22852 21.8569 7.48242C21.8256 7.73242 21.7963 7.97852 21.769 8.2207C21.7455 8.45898 21.7338 8.67773 21.7338 8.87695C21.7338 9.13477 21.8139 9.26367 21.9741 9.26367C22.0248 9.26367 22.0834 9.23828 22.1498 9.1875C22.2202 9.13281 22.3061 9.0332 22.4077 8.88867C22.5131 8.74414 22.6381 8.54688 22.7827 8.29688C22.9272 8.04297 23.0991 7.7168 23.2983 7.31836L23.3569 7.19531L23.5971 7.37695L23.5385 7.5C23.3041 7.96875 23.0952 8.35352 22.9116 8.6543C22.7319 8.95508 22.5678 9.19336 22.4194 9.36914C22.2709 9.54492 22.1323 9.66797 22.0034 9.73828C21.8745 9.80469 21.7455 9.83789 21.6166 9.83789C21.5346 9.83789 21.4526 9.82617 21.3705 9.80273C21.2885 9.7793 21.2162 9.73828 21.1537 9.67969C21.0912 9.62109 21.0405 9.54297 21.0014 9.44531C20.9623 9.34375 20.9428 9.21484 20.9428 9.05859C20.9428 8.82422 20.9584 8.56055 20.9897 8.26758C21.0209 7.97461 21.0561 7.68164 21.0952 7.38867C21.1342 7.0957 21.1694 6.82031 21.2006 6.5625C21.2319 6.30078 21.2475 6.08789 21.2475 5.92383C21.2475 5.7793 21.2162 5.66406 21.1537 5.57812C21.0912 5.48828 20.9975 5.44336 20.8725 5.44336ZM26.5535 8.38477C26.5535 8.60742 26.573 8.79492 26.6121 8.94727C26.6512 9.09961 26.7195 9.17578 26.8172 9.17578C26.8758 9.17578 26.9383 9.14844 27.0047 9.09375C27.075 9.03516 27.1551 8.94141 27.2449 8.8125C27.3348 8.68359 27.4363 8.51758 27.5496 8.31445C27.6668 8.10742 27.7996 7.85547 27.948 7.55859L28.1238 7.19531L28.3641 7.37695L28.1883 7.74023C28.0242 8.06836 27.8699 8.36328 27.7254 8.625C27.5848 8.88281 27.45 9.10156 27.3211 9.28125C27.1922 9.46094 27.0652 9.59961 26.9402 9.69727C26.8191 9.79102 26.698 9.83789 26.577 9.83789C26.448 9.83789 26.3387 9.80273 26.2488 9.73242C26.1629 9.66211 26.0906 9.56641 26.032 9.44531C25.9734 9.32031 25.9285 9.17773 25.8973 9.01758C25.866 8.85352 25.8445 8.67969 25.8328 8.49609C25.7391 8.68359 25.6355 8.85938 25.5223 9.02344C25.409 9.18359 25.2898 9.32422 25.1648 9.44531C25.0438 9.56641 24.9168 9.66211 24.784 9.73242C24.6512 9.80273 24.5184 9.83789 24.3855 9.83789C24.1902 9.83789 24.0008 9.79688 23.8172 9.71484C23.6336 9.63281 23.4695 9.50781 23.325 9.33984C23.1844 9.17188 23.0711 8.96094 22.9852 8.70703C22.8992 8.44922 22.8563 8.14648 22.8563 7.79883C22.8563 7.39258 22.909 7.02148 23.0145 6.68555C23.1199 6.3457 23.2625 6.05469 23.4422 5.8125C23.6219 5.56641 23.8289 5.37695 24.0633 5.24414C24.2977 5.10742 24.5438 5.03906 24.8016 5.03906C24.9578 5.03906 25.1023 5.07422 25.2352 5.14453C25.368 5.21484 25.4832 5.30078 25.5809 5.40234C25.6824 5.5 25.7664 5.60547 25.8328 5.71875C25.8992 5.82812 25.9441 5.92188 25.9676 6L26.0379 5.43164C26.0457 5.35742 26.0809 5.29492 26.1434 5.24414C26.2098 5.19336 26.282 5.1543 26.3602 5.12695C26.4383 5.0957 26.5145 5.07422 26.5887 5.0625C26.6629 5.04688 26.7156 5.03906 26.7469 5.03906C26.7938 5.03906 26.825 5.04688 26.8406 5.0625C26.8563 5.07812 26.8641 5.10938 26.8641 5.15625C26.8641 5.21484 26.8465 5.33398 26.8113 5.51367C26.7801 5.68945 26.7449 5.91602 26.7059 6.19336C26.6707 6.4668 26.6355 6.78906 26.6004 7.16016C26.5691 7.53125 26.5535 7.93945 26.5535 8.38477ZM25.909 6.83789C25.909 6.6582 25.8816 6.48242 25.827 6.31055C25.7723 6.13477 25.698 5.98047 25.6043 5.84766C25.5105 5.71094 25.4012 5.60156 25.2762 5.51953C25.1551 5.4375 25.0262 5.39648 24.8895 5.39648C24.7215 5.39648 24.5633 5.44531 24.4148 5.54297C24.2703 5.63672 24.1434 5.77148 24.034 5.94727C23.9285 6.11914 23.8445 6.32812 23.782 6.57422C23.7195 6.81641 23.6883 7.08398 23.6883 7.37695C23.6883 7.96289 23.7801 8.41016 23.9637 8.71875C24.1473 9.02344 24.3914 9.17578 24.6961 9.17578C24.8289 9.17578 24.9656 9.12305 25.1063 9.01758C25.2508 8.9082 25.3816 8.75391 25.4988 8.55469C25.6199 8.35156 25.7176 8.10547 25.7918 7.81641C25.8699 7.52734 25.909 7.20117 25.909 6.83789Z" fill="white"/>
</svg>
